<?xml version="1.0" encoding="UTF-8"?>
<svg xmlns="http://www.w3.org/2000/svg" width="63" height="35" viewBox="0 0 63 35" fill="none">
  <path d="M43.4201 34.0583C42.796 33.4305 42.4965 32.6719 42.5215 31.7825C42.5464 30.8931 42.872 30.1345 43.4981 29.5067L52.3129 20.639H3.1203C2.23622 20.639 1.49463 20.3377 0.895536 19.735C0.296439 19.1323 -0.0020694 18.3873 1.07968e-05 17.5C1.07968e-05 16.6106 0.29956 15.8646 0.898656 15.2619C1.49775 14.6592 2.2383 14.3589 3.1203 14.361H52.3129L43.4201 5.4148C42.796 4.78699 42.484 4.04096 42.484 3.17668C42.484 2.31241 42.796 1.56741 43.4201 0.941703C44.0442 0.3139 44.7857 0 45.6449 0C46.504 0 47.2445 0.3139 47.8665 0.941703L62.1419 15.3027C62.4539 15.6166 62.6754 15.9566 62.8065 16.3229C62.9375 16.6891 63.002 17.0815 63 17.5C63 17.9185 62.9344 18.3109 62.8034 18.6771C62.6723 19.0433 62.4518 19.3834 62.1419 19.6973L47.7885 34.1368C47.2165 34.7123 46.5019 35 45.6449 35C44.7878 35 44.0462 34.6861 43.4201 34.0583Z" fill="#C4F639"></path>
</svg>
