<?xml version="1.0" encoding="UTF-8"?>
<svg xmlns="http://www.w3.org/2000/svg" width="18" height="22" viewBox="0 0 18 22" fill="none">
  <path d="M11 14L12.5 15.5M5.5 11.5C5.5 12.2956 5.81607 13.0587 6.37868 13.6213C6.94129 14.1839 7.70435 14.5 8.5 14.5C9.29565 14.5 10.0587 14.1839 10.6213 13.6213C11.1839 13.0587 11.5 12.2956 11.5 11.5C11.5 10.7044 11.1839 9.94129 10.6213 9.37868C10.0587 8.81607 9.29565 8.5 8.5 8.5C7.70435 8.5 6.94129 8.81607 6.37868 9.37868C5.81607 9.94129 5.5 10.7044 5.5 11.5Z" stroke="#333333" stroke-width="1.5" stroke-linecap="round" stroke-linejoin="round"></path>
  <path d="M1 20.4V1.6C1 1.44087 1.06321 1.28826 1.17574 1.17574C1.28826 1.06321 1.44087 1 1.6 1H13.252C13.4111 1.00014 13.5636 1.06345 13.676 1.176L16.824 4.324C16.88 4.3799 16.9243 4.44632 16.9545 4.51943C16.9847 4.59254 17.0002 4.6709 17 4.75V20.4C17 20.4788 16.9845 20.5568 16.9543 20.6296C16.9242 20.7024 16.88 20.7685 16.8243 20.8243C16.7685 20.88 16.7024 20.9242 16.6296 20.9543C16.5568 20.9845 16.4788 21 16.4 21H1.6C1.52121 21 1.44319 20.9845 1.37039 20.9543C1.29759 20.9242 1.23145 20.88 1.17574 20.8243C1.12002 20.7685 1.07583 20.7024 1.04567 20.6296C1.01552 20.5568 1 20.4788 1 20.4Z" stroke="#333333" stroke-width="1.5" stroke-linecap="round" stroke-linejoin="round"></path>
  <path d="M13 1V4.4C13 4.55913 13.0632 4.71174 13.1757 4.82426C13.2883 4.93679 13.4409 5 13.6 5H17" stroke="#333333" stroke-width="1.5" stroke-linecap="round" stroke-linejoin="round"></path>
</svg>
