<?xml version="1.0" encoding="UTF-8"?>
<svg xmlns="http://www.w3.org/2000/svg" width="158" height="138" viewBox="0 0 158 138" fill="none">
  <ellipse cx="73" cy="69" rx="73" ry="69" fill="#002926"></ellipse>
  <path d="M37.0333 34.243C37.25 34.243 37.575 34.1345 37.7917 33.9176C39.3083 32.3994 40.9333 30.9896 42.6667 29.5798C43.1 29.2544 43.2083 28.4953 42.8833 28.0615C42.5583 27.6277 41.8 27.5193 41.3667 27.8446C39.6333 29.146 37.9 30.6642 36.275 32.2909C35.8417 32.7247 35.8417 33.4838 36.275 33.9176C36.3833 34.1345 36.7083 34.243 37.0333 34.243Z" fill="white"></path>
  <path d="M28.475 44.6538C28.6917 44.7622 28.8 44.8707 29.0167 44.8707C29.3417 44.8707 29.775 44.6538 29.9917 44.3285C31.075 42.4849 32.2667 40.6413 33.5667 38.9061C33.8917 38.4724 33.7833 37.7132 33.35 37.3879C32.9167 37.0626 32.1583 37.171 31.8333 37.6048C30.5333 39.3399 29.2333 41.292 28.0417 43.244C27.6083 43.6778 27.9333 44.3285 28.475 44.6538Z" fill="white"></path>
  <path d="M23.6 57.0167C23.7083 57.0167 23.8167 57.0167 23.8167 57.0167C24.3583 57.0167 24.7917 56.6913 24.9 56.2576C25.4417 54.1971 26.2 52.0282 26.9583 50.0761C27.175 49.5339 26.9583 48.7748 26.3083 48.6663C25.7667 48.4494 25.0083 48.6663 24.9 49.317C24.0333 51.3775 23.275 53.6549 22.7333 55.7153C22.625 56.2576 22.95 56.9082 23.6 57.0167Z" fill="white"></path>
  <path d="M23.3833 69.1627V68.9458C23.3833 66.7769 23.6 64.6079 23.7083 62.5474C23.8167 61.8968 23.3833 61.3545 22.7333 61.2461C22.0833 61.1376 21.5417 61.5714 21.4333 62.2221C21.2167 64.391 21 66.56 21 68.8373V69.0542C21 69.7049 21.5417 70.1387 22.0833 70.1387C22.625 70.2471 23.3833 69.8133 23.3833 69.1627Z" fill="white"></path>
  <path d="M59.675 21.0125C59.7833 21.0125 59.8917 21.0125 59.8917 21.0125C61.95 20.4703 64.1167 20.0365 66.2833 19.7112C66.9333 19.6027 67.3667 19.0605 67.2583 18.4098C67.15 17.7591 66.6083 17.3253 65.9583 17.4338C63.6833 17.6507 61.5167 18.1929 59.35 18.7351C58.7 18.952 58.375 19.4943 58.5917 20.0365C58.7 20.6872 59.1333 21.0125 59.675 21.0125Z" fill="white"></path>
  <path d="M118.933 49.8592C119.15 50.293 119.583 50.6184 120.017 50.6184C120.233 50.6184 120.233 50.6184 120.45 50.5099C120.992 50.293 121.208 49.6423 121.1 49.1001C120.233 47.0396 119.258 44.9791 118.067 43.0271C117.85 42.4849 117.092 42.268 116.55 42.5933C116.008 42.8102 115.792 43.5693 116.117 44.1116C117.092 45.9552 118.067 47.9072 118.933 49.8592Z" fill="white"></path>
  <path d="M25.0083 81.9593C24.4667 79.8989 24.0333 77.7299 23.7083 75.561C23.6 74.9103 23.0583 74.4765 22.4083 74.585C21.7583 74.6934 21.325 75.2357 21.4333 75.8863C21.65 78.1637 22.1917 80.3326 22.7333 82.61C22.95 83.1523 23.3833 83.3691 23.8167 83.3691C23.925 83.3691 24.0333 83.3691 24.0333 83.3691C24.9 83.1522 25.225 82.5016 25.0083 81.9593Z" fill="white"></path>
  <path d="M121.1 56.0407C121.642 58.1011 122.075 60.2701 122.4 62.439C122.508 62.9812 122.942 63.415 123.483 63.415C123.592 63.415 123.592 63.415 123.7 63.415C124.35 63.3066 124.783 62.7643 124.675 62.1137C124.458 59.8363 123.917 57.6674 123.375 55.39C123.158 54.7393 122.617 54.414 122.075 54.6309C121.208 54.8478 120.883 55.4984 121.1 56.0407Z" fill="white"></path>
  <path d="M72.7833 19.2774H73C75.1667 19.2774 77.3333 19.4943 79.5 19.7112C79.6083 19.7112 79.6083 19.7112 79.7167 19.7112C80.2583 19.7112 80.8 19.2774 80.8 18.7351C80.9083 18.0845 80.475 17.5422 79.825 17.4338C77.55 17.2169 75.3833 17 73 17H72.7833C72.1333 17 71.7 17.5422 71.7 18.0845C71.7 18.6267 72.2417 19.2774 72.7833 19.2774Z" fill="white"></path>
  <path d="M97.8083 25.8926C99.65 26.9771 101.492 28.17 103.117 29.4713C103.333 29.6882 103.55 29.6882 103.875 29.6882C104.2 29.6882 104.525 29.4713 104.742 29.2544C105.067 28.8206 104.958 28.0615 104.525 27.7362C102.792 26.4348 100.842 25.025 98.8917 23.9406C98.35 23.7237 97.5917 23.8321 97.375 24.3743C97.1583 24.9166 97.2667 25.5673 97.8083 25.8926Z" fill="white"></path>
  <path d="M85.8917 20.9041C87.95 21.4463 90.1167 22.2054 92.0667 22.9645C92.2833 23.073 92.2833 23.073 92.5 23.073C92.9333 23.073 93.3667 22.8561 93.5833 22.3139C93.8 21.7716 93.475 21.121 92.9333 20.9041C90.875 20.0365 88.6 19.2774 86.5417 18.7351C85.8917 18.5182 85.35 18.952 85.2417 19.4943C84.9167 20.2534 85.35 20.7956 85.8917 20.9041Z" fill="white"></path>
  <path d="M47.4333 26.1095C47.65 26.1095 47.7583 26.001 47.975 25.8926C49.8167 24.8081 51.7667 23.8321 53.825 23.073C54.3667 22.8561 54.5833 22.2054 54.475 21.6632C54.2583 21.121 53.6083 20.9041 53.0667 21.0125C51.0083 21.8801 48.95 22.8561 47 24.049C46.4583 24.2659 46.2417 25.025 46.675 25.5673C46.7833 25.8926 47.1083 26.1095 47.4333 26.1095Z" fill="white"></path>
  <path d="M117.633 93.3462C117.092 93.1293 116.333 93.2377 116.117 93.78C115.033 95.6236 113.842 97.4671 112.542 99.2023C112.217 99.6361 112.325 100.395 112.758 100.721C112.975 100.937 113.192 100.937 113.517 100.937C113.842 100.937 114.167 100.721 114.383 100.504C115.683 98.7685 117.092 96.8165 118.175 94.8644C118.392 94.3222 118.175 93.6715 117.633 93.3462Z" fill="white"></path>
  <path d="M108.208 104.082C106.692 105.601 105.067 107.01 103.333 108.42C102.9 108.746 102.792 109.505 103.117 109.938C103.333 110.155 103.658 110.372 103.983 110.372C104.2 110.372 104.417 110.264 104.742 110.155C106.475 108.854 108.208 107.336 109.833 105.709C110.267 105.275 110.267 104.516 109.833 104.082C109.4 103.649 108.642 103.649 108.208 104.082Z" fill="white"></path>
  <path d="M97.9167 112.107C96.075 113.192 94.125 114.168 92.0667 114.927C91.525 115.144 91.3083 115.795 91.4167 116.337C91.6333 116.771 92.0667 117.096 92.3917 117.096C92.6083 117.096 92.6083 117.096 92.825 116.987C94.8833 116.12 96.9417 115.144 98.8917 113.951C99.4333 113.734 99.65 112.975 99.325 112.433C99.2167 111.891 98.4583 111.674 97.9167 112.107Z" fill="white"></path>
  <path d="M122.4 80.9833C121.75 80.7664 121.208 81.2002 121.1 81.7424C120.558 83.8029 119.8 85.9718 119.042 87.9239C118.825 88.4661 119.042 89.2252 119.692 89.3337C119.908 89.4421 119.908 89.4421 120.125 89.4421C120.558 89.4421 120.992 89.2252 121.208 88.683C122.075 86.6225 122.833 84.3452 123.375 82.2847C123.375 81.7424 123.05 81.2002 122.4 80.9833Z" fill="white"></path>
  <path d="M123.808 67.8613C123.158 67.8613 122.725 68.4035 122.725 69.0542C122.725 71.2232 122.508 73.3921 122.292 75.4526C122.183 76.1032 122.617 76.6455 123.267 76.7539C123.375 76.7539 123.375 76.7539 123.483 76.7539C124.025 76.7539 124.567 76.3201 124.567 75.7779C124.783 73.5005 125 71.3316 125 69.0542V68.9458C125 68.2951 124.458 67.8613 123.808 67.8613Z" fill="white"></path>
  <path d="M73 118.723C70.8333 118.723 68.6667 118.506 66.6083 118.289C65.9583 118.18 65.4167 118.614 65.3083 119.265C65.2 119.916 65.6333 120.458 66.2833 120.566C68.5583 120.783 70.725 121 73 121H73.1083C73.7583 121 74.1917 120.458 74.1917 119.916C74.1917 119.265 73.65 118.723 73 118.723Z" fill="white"></path>
  <path d="M86 117.096C83.9417 117.638 81.775 118.072 79.6083 118.397C78.9583 118.506 78.525 119.048 78.6333 119.699C78.7417 120.241 79.175 120.675 79.7167 120.675C79.825 120.675 79.825 120.675 79.9333 120.675C82.2083 120.458 84.375 119.916 86.65 119.373C87.3 119.156 87.625 118.614 87.4083 118.072C87.1917 117.204 86.5417 116.879 86 117.096Z" fill="white"></path>
  <path d="M33.675 99.3107C33.35 98.8769 32.5917 98.7685 32.1583 99.0938C31.725 99.4192 31.6167 100.178 31.9417 100.612C33.2417 102.347 34.7583 104.082 36.3833 105.709C36.6 105.926 36.925 106.034 37.1417 106.034C37.3583 106.034 37.6833 105.926 37.9 105.709C38.3333 105.275 38.3333 104.516 37.9 104.082C36.4917 102.781 34.975 101.046 33.675 99.3107Z" fill="white"></path>
  <path d="M48.3 112.107C46.4583 111.023 44.6167 109.83 42.8833 108.529C42.45 108.203 41.6917 108.312 41.3667 108.746C41.0417 109.179 41.15 109.938 41.5833 110.264C43.3167 111.565 45.2667 112.975 47.2167 114.059C47.4333 114.168 47.5417 114.276 47.7583 114.276C48.0833 114.276 48.5167 114.059 48.7333 113.734C48.95 113.083 48.8417 112.433 48.3 112.107Z" fill="white"></path>
  <path d="M60.2167 117.096C58.1583 116.554 55.9917 115.795 54.0417 115.035C53.5 114.819 52.7417 115.035 52.6333 115.686C52.4167 116.228 52.6333 116.987 53.2833 117.096C55.3417 117.964 57.6167 118.723 59.675 119.265C59.7833 119.265 59.8917 119.265 59.8917 119.265C60.4333 119.265 60.8667 118.94 60.975 118.506C61.1917 117.855 60.8667 117.204 60.2167 117.096Z" fill="white"></path>
  <path d="M107.558 40.316C107.667 40.316 107.775 40.316 107.775 40.316L113.192 39.123C113.3 39.123 113.408 39.0146 113.408 39.0146C113.625 39.0146 113.733 38.9062 113.95 38.7977C114.275 38.5808 114.383 38.0386 114.383 37.7132L115.25 32.6163C115.358 31.9656 115.033 31.4234 114.383 31.3149C113.733 31.2065 113.192 31.5318 113.083 32.1825L112.542 35.3274C111.675 34.243 110.7 33.1585 109.725 32.1825C109.292 31.7487 108.533 31.7487 108.1 32.1825C107.667 32.6163 107.667 33.3754 108.1 33.8092C109.292 35.0021 110.267 36.0865 111.35 37.3879L107.342 38.147C106.692 38.2555 106.367 38.9062 106.475 39.4484C106.583 39.9906 107.017 40.316 107.558 40.316Z" fill="white"></path>
  <path d="M36.0583 93.9969C35.95 93.3462 35.3 93.0209 34.7583 93.1293L29.9917 94.1053V93.9969C28.9083 92.1533 27.9333 90.2013 27.175 88.1408C26.9583 87.5985 26.3083 87.3816 25.7667 87.4901C25.225 87.707 25.0083 88.3577 25.1167 88.8999C25.9833 90.9604 26.9583 93.0208 28.15 94.9729C28.15 94.9729 28.15 94.9729 28.15 95.0813C28.15 95.1898 28.0417 95.2982 28.0417 95.2982L27.0667 100.721C26.9583 101.371 27.2833 101.913 27.9333 102.022C28.0417 102.022 28.15 102.022 28.15 102.022C28.6917 102.022 29.125 101.697 29.2333 101.154L30.1 96.2742L35.0833 95.2982C35.7333 95.1898 36.0583 94.5391 36.0583 93.9969Z" fill="white"></path>
  <path d="M86.2167 108.203C84.5917 108.203 83.8333 107.01 83.5083 106.251L83.4 106.034C83.2917 105.818 83.1833 105.709 83.075 105.601C82.1 104.408 80.15 103.757 78.7417 103.432C78.3083 103.323 77.875 103.215 77.55 103.106C75.925 102.673 74.7333 102.022 73.65 101.154C72.7833 100.287 72.35 98.8769 72.5667 97.684C72.8917 96.5996 73.7583 95.8405 74.8417 95.732C75.925 95.6236 76.9 95.732 77.9833 95.9489C78.2 96.0573 78.3083 96.0573 78.4167 96.0573C78.6333 96.0573 78.85 96.1658 79.0667 96.1658C80.2583 96.3827 81.6667 96.1658 83.075 96.0573L83.725 95.9489C83.9417 95.8405 84.375 95.732 84.8083 95.732C85.1333 95.732 85.5667 95.732 85.8917 95.6236C86.4333 95.6236 86.975 95.6236 87.3 95.5151H87.4083C87.7333 95.5151 88.1667 95.4067 88.3833 95.2982C88.7083 95.1898 89.0333 95.1898 89.4667 95.4067C89.7917 95.5151 90.0083 95.8405 90.1167 96.0573C90.3333 96.3827 90.6583 97.1418 90.6583 97.5756C90.6583 97.7925 90.55 98.0094 90.4417 98.3347C90.225 99.2023 89.9 99.853 89.4667 100.721L89.3583 101.046H89.25C89.25 101.154 89.25 101.154 89.1417 101.263C89.1417 101.371 89.0333 101.371 89.0333 101.48V101.588C89.0333 101.805 89.0333 102.13 89.0333 102.456C89.0333 102.673 89.0333 102.889 89.0333 103.106C89.0333 103.215 89.0333 103.323 89.0333 103.432C89.0333 103.649 89.1417 103.757 89.1417 103.865C89.3583 104.95 89.7917 107.227 86.975 107.878C86.7583 108.203 86.4333 108.203 86.2167 108.203ZM75.8167 96.9249C75.6 96.9249 75.275 96.9249 75.0583 96.9249C74.3 97.0334 73.8667 97.5756 73.65 98.0094C73.4333 98.7685 73.7583 99.7445 74.4083 100.395C75.275 101.154 76.3583 101.697 77.875 102.13C78.2 102.239 78.6333 102.347 79.0667 102.456C80.5833 102.889 82.75 103.54 83.9417 104.95C84.1583 105.058 84.2667 105.275 84.375 105.492L84.4833 105.709C84.9167 106.577 85.35 107.119 86.325 107.119C86.5417 107.119 86.65 107.119 86.8667 107.01C88.6 106.577 88.4917 105.601 88.275 104.191V104.082C88.275 103.974 88.275 103.865 88.275 103.757C88.275 103.54 88.1667 103.432 88.1667 103.323C88.1667 103.106 88.1667 102.889 88.1667 102.673C88.1667 102.239 88.1667 101.805 88.1667 101.48C88.1667 101.154 88.275 100.937 88.3833 100.829C88.3833 100.829 88.3833 100.721 88.4917 100.612V100.504L88.6 100.395C88.7083 100.287 88.7083 100.178 88.8167 100.178C89.25 99.5276 89.4667 98.8769 89.6833 98.2263V98.1178C89.7917 98.0094 89.7917 97.7925 89.9 97.7925C89.9 97.684 89.6833 97.1418 89.4667 96.8165L89.3583 96.5996C89.3583 96.4911 89.1417 96.3827 89.0333 96.4911C88.7083 96.5996 88.275 96.708 87.7333 96.708C87.1917 96.8165 86.65 96.8165 86.1083 96.8165C85.7833 96.8165 85.35 96.8165 85.025 96.9249C84.7 96.9249 84.4833 97.0334 84.1583 97.1418L83.4 97.2503C81.8833 97.4672 80.3667 97.684 78.9583 97.3587C78.7417 97.2503 78.6333 97.2503 78.4167 97.2503C78.2 97.2503 77.9833 97.1418 77.7667 97.1418C77.1167 96.9249 76.4667 96.9249 75.8167 96.9249Z" fill="white"></path>
  <path d="M93.8 99.6361H93.475C92.6083 99.5276 92.175 98.9854 91.9583 98.6601C91.2 98.1178 90.1167 96.8165 90.7667 95.4067C90.9833 94.8644 91.525 94.6476 91.85 94.5391C91.9583 94.5391 92.0667 94.4307 92.0667 94.4307C92.7167 93.78 93.6917 92.804 93.6917 92.0448C93.6917 90.635 93.0417 89.3337 92.3917 87.9239C92.0667 87.3816 91.85 86.8394 91.6333 86.2972C91.2 85.2127 90.6583 84.9958 89.4667 84.3452L89.0333 84.1283C88.0583 83.586 87.4083 82.8269 86.975 81.634L86.8667 81.4171C86.7583 81.0918 86.5417 80.7664 86.325 80.5495C86.2167 80.4411 85.8917 80.3326 85.7833 80.3326L85.675 80.1157C85.35 80.0073 85.025 79.8989 84.7 79.682C84.05 79.1397 83.6167 78.7059 83.1833 78.2722L82.425 77.513C81.45 76.6455 80.8 76.1032 79.9333 75.8863C79.7167 75.7779 79.6083 75.7779 79.5 75.7779C79.2833 75.7779 79.175 75.6695 78.9583 75.6695C77.7667 75.561 76.9 75.2357 76.1417 74.6934C74.8417 73.8259 73.8667 72.7414 72.8917 71.5485C72.675 71.3316 72.4583 71.0063 72.2417 70.7894L72.1333 70.6809C71.8083 70.2471 71.4833 69.8133 71.1583 69.488C70.4 68.512 69.425 67.6444 68.125 66.56C67.5833 66.0177 66.9333 65.3671 66.2833 64.8248L65.7417 64.7164C65.525 64.4995 65.4167 64.391 65.2 64.2826C64.7667 63.8488 64.225 63.415 63.9 62.7643C62.925 61.3545 62.4917 59.7278 62.0583 58.318L61.4083 55.9322C61.0833 54.9562 60 54.3055 59.025 53.6548L57.9417 52.8957C56.75 52.245 55.775 51.8113 54.475 51.9197C53.825 52.0282 53.5 52.4619 52.9583 53.1126L52.4167 53.6548C52.2 53.9802 51.3333 54.7393 50.575 55.2815C50.25 55.4984 50.0333 55.6069 49.925 55.7153C49.7083 55.8238 49.4917 55.9322 49.275 56.0407H49.1667C48.625 56.2576 47.975 56.4745 47.5417 56.2576L47.325 56.366C47.1083 56.2576 46.4583 56.0407 46.35 55.1731C46.2417 54.5224 46.5667 53.9802 46.7833 53.5464C46.7833 53.5464 46.7833 53.438 46.8917 53.438C46.675 53.438 46.4583 53.438 46.1333 53.438C45.4833 53.438 44.4 53.438 43.5333 52.6788C42.775 52.0282 42.3417 50.9437 42.45 49.8592C42.45 49.4254 42.5583 49.1001 42.6667 48.7748C42.6667 48.5579 42.775 48.4494 42.775 48.4494C42.775 48.1241 42.775 48.0156 42.5583 47.6903C42.45 47.5819 42.45 47.4734 42.3417 47.365C42.0167 46.8227 41.3667 45.7383 41.9083 44.6538C42.3417 44.0031 42.775 43.5693 43.2083 43.244L43.75 42.7018C43.75 42.7018 43.6417 42.5933 43.5333 42.5933C43.2083 42.3764 42.8833 42.0511 42.6667 41.8342C42.0167 41.1835 41.8 40.2075 42.125 39.3399C42.3417 38.2555 43.5333 37.8217 44.6167 37.8217C44.9417 37.8217 45.375 37.8217 45.8083 37.9301C46.025 37.9301 46.1333 37.9301 46.35 38.0386C46.4583 38.0386 46.4583 38.0386 46.5667 38.0386C47.7583 38.147 48.8417 37.4964 49.4917 36.4119L49.7083 35.8697C50.1417 35.1105 50.6833 34.1345 51.6583 34.0261C52.525 34.0261 53.0667 34.3514 53.6083 35.1105C53.9333 35.5443 54.15 35.8697 54.2583 36.195C54.2583 36.3034 54.3667 36.4119 54.3667 36.5203C54.475 36.6288 54.475 36.7372 54.5833 36.9541C54.5833 37.0626 54.6917 37.171 54.6917 37.2795C54.6917 37.3879 54.8 37.3879 54.9083 37.4964C55.0167 37.2795 55.0167 37.171 55.0167 36.8457C55.0167 36.5203 55.0167 36.0865 55.125 35.6528C55.3417 34.7852 55.9917 34.1345 56.75 33.8092C57.6167 33.3754 58.4833 33.7007 59.025 34.0261C59.025 34.0261 59.1333 34.0261 59.1333 34.1345L59.7833 34.0261L59.8917 34.1345C60.1083 34.243 60.325 34.3514 60.4333 34.4599C60.325 34.0261 60.325 33.4838 60.4333 33.0501C60.5417 32.5078 61.1917 32.2909 61.625 32.1825H61.7333C61.95 32.1825 62.275 32.1825 62.4917 32.2909C62.4917 32.074 62.4917 31.9656 62.4917 31.7487C62.4917 30.9896 62.925 30.4473 63.575 30.2304C64.225 30.122 64.7667 30.2304 65.0917 30.3389H65.3083C65.9583 30.5558 66.6083 30.2304 67.475 29.7967C67.8 29.6882 68.0167 29.5798 68.3417 29.4713C68.5583 29.3629 68.6667 29.3629 68.8833 29.2544H69.1C69.2083 29.2544 69.3167 29.2544 69.425 29.2544C69.5333 29.2544 69.6417 29.146 69.8583 29.146C70.075 29.146 70.2917 29.146 70.2917 29.0375L70.6167 28.7122C70.9417 28.4953 71.4833 28.0615 72.35 28.2784C73.65 28.6038 73.975 29.5798 74.1917 30.2304V30.4473C74.1917 30.6642 74.1917 30.6642 74.3 30.8811L74.4083 30.9896C75.0583 31.9656 76.4667 32.6163 77.9833 32.3994C78.2 32.2909 78.3083 32.2909 78.4167 32.2909C78.85 32.1825 79.2833 32.1825 79.7167 32.1825C80.5833 32.1825 81.5583 32.7247 81.8833 33.8092C82.3167 34.7852 81.775 35.7612 80.9083 36.195C80.8 36.3034 80.6917 36.3034 80.6917 36.4119C80.6917 36.6288 80.8 36.9541 81.0167 37.2795C81.45 38.0386 82.2083 39.2315 81.2333 40.6413C80.2583 42.1595 78.2 42.8102 76.3583 43.3525C75.925 43.5693 75.4917 43.6778 75.1667 43.7862C74.95 43.8947 74.7333 43.8947 74.5167 44.0031C74.4083 44.0031 74.3 44.1116 74.3 44.1116V44.3285C74.3 44.3285 74.4083 44.5454 74.625 44.6538C75.0583 45.196 75.275 45.6298 75.4917 46.0636C75.925 47.4734 75.1667 48.2325 74.95 48.4494L74.8417 48.5579H74.7333C74.5167 48.6663 74.4083 48.6663 74.1917 48.7748L74.0833 48.8832C74.0833 48.9917 74.0833 49.317 74.3 50.1846L74.4083 50.4015C74.8417 51.8113 75.4917 52.7873 76.25 53.438C76.7917 53.8717 77.225 54.0886 77.9833 54.414C78.525 54.6309 79.175 54.9562 79.7167 55.2815C81.8833 56.9082 82.6417 58.7518 83.2917 60.5954L83.4 60.8123C83.6167 61.7883 83.9417 62.5474 84.375 63.1981C85.35 65.1502 86.5417 66.7769 87.95 67.9698C88.6 68.4035 89.1417 68.7289 89.7917 68.6204C89.9 68.6204 90.225 68.512 90.3333 68.512C90.55 68.512 90.6583 68.512 90.875 68.4035H91.0917C92.0667 68.1867 92.9333 67.9698 93.9083 68.1867C94.5583 68.1867 95.5333 68.512 95.9667 69.1627C96.2917 69.5965 96.4 70.2471 96.1833 70.6809C96.075 71.2232 95.5333 71.7654 95.2083 72.0907C95.1 72.1992 94.9917 72.3076 94.9917 72.3076C94.9917 72.3076 95.1 72.3076 95.1 72.4161C95.9667 72.9583 96.9417 73.3921 97.9167 73.8259C98.35 74.0428 98.7833 74.2597 99.2167 74.4765C101.925 75.7779 104.633 77.0792 106.908 79.1397C107.45 79.682 108.208 80.5495 108.425 81.5256C108.533 81.9593 108.642 82.5016 108.642 83.0438C108.642 84.0198 108.642 85.2127 107.667 85.6465C107.342 85.755 106.908 85.9718 106.042 85.6465C105.067 85.2127 104.633 84.2367 104.417 83.9114C104.2 83.586 103.983 83.3691 103.875 83.1522C103.767 83.1522 103.55 83.0438 103.442 83.0438C103.225 83.0438 103.117 82.9353 102.9 82.9353C102.25 82.8269 101.275 82.7185 100.625 81.8509L100.408 81.634C100.3 81.5256 100.192 81.3087 100.083 81.2002C100.083 81.2002 99.975 81.2002 99.8667 81.3087H99.7583C99.4333 81.4171 98.2417 82.8269 97.9167 84.3452C97.8083 85.2127 97.9167 85.3212 97.9167 85.4296C97.9167 85.4296 98.1333 85.4296 98.2417 85.5381L98.675 85.6465C99 85.755 99.325 85.8634 99.65 86.0803C100.517 86.731 101.167 88.2492 101.167 89.659C101.275 90.3097 101.275 91.0688 100.95 91.611C100.517 92.5871 99.65 93.0208 98.4583 92.804H98.025C98.025 92.804 98.025 92.804 97.9167 92.804C97.8083 92.9124 97.8083 93.1293 97.7 93.6715C97.7 94.6475 97.4833 95.4067 96.9417 95.9489C96.8333 96.1658 96.6167 96.4911 96.4 96.9249C96.1833 98.1178 95.425 99.6361 93.8 99.6361ZM72.8917 70.2471C73.1083 70.464 73.325 70.6809 73.5417 71.0063C74.5167 72.0907 75.4917 73.1752 76.6833 73.9343C77.225 74.3681 77.9833 74.585 79.0667 74.6934H79.2833C79.2833 74.6934 79.5 74.6934 79.6083 74.8019C79.825 74.8019 80.0417 74.9103 80.15 74.9103C81.3417 75.1272 82.2083 75.8863 83.1833 76.7539L83.9417 77.513C84.375 77.9468 84.8083 78.3806 85.35 78.8144C85.4583 78.9228 85.7833 79.0313 86.1083 79.1397L86.4333 79.2482C86.7583 79.3566 87.1917 79.4651 87.4083 79.7904C87.7333 80.1157 87.95 80.5495 88.1667 80.9833L88.275 81.2002C88.6 82.1762 89.0333 82.7185 89.7917 83.1522L90.225 83.3691C91.4167 84.0198 92.2833 84.4536 92.9333 85.8634C93.15 86.4056 93.3667 86.9479 93.6917 87.3816C94.3417 88.8999 95.1 90.3097 95.1 92.0448C95.1 93.2377 93.9083 94.4307 93.15 95.2982C92.9333 95.5151 92.7167 95.5151 92.5 95.6236C92.2833 95.732 92.0667 95.732 92.0667 95.8405C91.6333 96.9249 92.9333 97.9009 92.9333 97.9009L93.15 98.1178C93.3667 98.4432 93.475 98.5516 93.8 98.6601H94.0167C94.8833 98.6601 95.425 97.7925 96.075 96.5996C96.2917 96.1658 96.5083 95.732 96.725 95.4067C97.1583 94.9729 97.2667 94.5391 97.2667 93.78C97.375 92.6955 97.4833 92.0448 98.4583 91.8279H99.1083C99.975 91.9364 100.3 91.8279 100.517 91.2857C100.625 90.9604 100.733 90.5266 100.625 89.8759C100.625 88.683 100.192 87.4901 99.5417 87.0563C99.325 86.9479 99 86.8394 98.7833 86.731L98.35 86.6225C97.9167 86.5141 97.7 86.4056 97.4833 86.1887C97.05 85.755 97.1583 84.9958 97.2667 84.2367C97.5917 82.5016 99 80.5495 99.975 80.3326C100.842 80.0073 101.167 80.3326 101.6 80.9833L101.817 81.2002C102.25 81.7424 102.792 81.8509 103.442 81.9593C103.767 82.0678 103.983 82.0678 104.2 82.1762C104.417 82.1762 104.525 82.2847 104.742 82.2847H104.85L104.958 82.3931C105.175 82.61 105.5 83.1522 105.825 83.4776V83.586C105.933 83.8029 106.258 84.4536 106.908 84.7789C107.342 84.8874 107.558 84.7789 107.667 84.7789C107.992 84.562 107.992 83.8029 107.992 83.0438C107.992 82.61 107.883 82.1762 107.775 81.7424C107.558 81.0918 107.125 80.4411 106.475 79.7904C104.308 77.8384 101.708 76.537 99 75.3441C98.5667 75.1272 98.1333 74.9103 97.7 74.6934C96.725 74.2596 95.75 73.8259 94.8833 73.2836C94.6667 73.1752 94.45 72.9583 94.3417 72.8498C93.6917 72.1992 94.125 71.8738 94.775 71.2232C94.9917 71.0063 95.425 70.5725 95.5333 70.2471C95.5333 70.0302 95.5333 69.8133 95.425 69.5965C95.2083 69.2711 94.6667 69.0542 94.2333 69.0542H94.125C93.3667 68.8373 92.6083 69.0542 91.7417 69.2711H91.6333C91.525 69.2711 91.2 69.3796 90.9833 69.3796C90.7667 69.3796 90.6583 69.3796 90.4417 69.488C89.3583 69.5965 88.6 69.2711 87.7333 68.6204C86.2167 67.4275 84.9167 65.5839 83.8333 63.5235C83.4 62.7643 83.075 61.8968 82.8583 60.9208L82.75 60.7039C81.9917 58.8603 81.45 57.2336 79.6083 55.8238C79.0667 55.4984 78.6333 55.1731 78.0917 55.0647C77.3333 54.7393 76.6833 54.414 76.1417 53.8717C75.1667 53.0042 74.5167 51.8113 73.975 50.4015L73.8667 50.1846C73.65 49.317 73.5417 48.7748 73.65 48.341C73.65 48.1241 73.7583 47.9072 73.8667 47.7988V47.6903L74.1917 47.5819C74.4083 47.4734 74.625 47.365 74.8417 47.2565C75.0583 47.0396 75.275 46.7143 75.0583 46.1721C74.8417 45.8467 74.625 45.4129 74.4083 44.9791C74.1917 44.8707 73.975 44.3285 73.8667 44.0031C73.5417 43.1356 74.1917 42.8102 74.7333 42.5933C74.95 42.4849 75.1667 42.4849 75.3833 42.3764C75.7083 42.268 76.1417 42.1595 76.4667 41.9426H76.575C78.3083 41.5089 80.15 40.8582 80.9083 39.6653C81.45 38.9062 81.125 38.2555 80.6917 37.3879C80.475 36.8457 80.15 36.3034 80.2583 35.7612C80.2583 35.3274 80.5833 35.219 80.6917 35.1105C80.8 35.1105 80.8 35.0021 80.8 35.0021L80.9083 34.8936C81.0167 34.7852 81.6667 34.4599 81.45 33.8092C81.2333 33.0501 80.5833 32.9416 80.3667 32.9416C79.9333 32.9416 79.7167 32.9416 79.2833 33.0501H79.175L78.7417 33.2669H78.525C76.575 33.4838 74.7333 32.7247 73.7583 31.3149L73.65 31.2065C73.5417 30.9896 73.4333 30.7727 73.4333 30.3389C73.2167 29.6882 73 29.2544 72.4583 29.146C72.1333 29.0375 71.8083 29.2544 71.4833 29.4713L71.2667 29.6882C70.9417 30.0136 70.4 30.0136 69.9667 30.0136C69.9667 30.0136 69.8583 30.0136 69.75 30.0136C69.6417 30.0136 69.425 30.122 69.3167 30.122C69.3167 30.2304 69.2083 30.2304 68.9917 30.3389C68.775 30.4473 68.45 30.5558 68.2333 30.6642C67.3667 31.098 66.5 31.5318 65.4167 31.3149H65.0917C64.7667 31.2065 64.4417 31.098 64.1167 31.2065C63.7917 31.3149 63.7917 31.4234 63.7917 31.6402C63.7917 31.8571 63.7917 32.1825 63.7917 32.2909L63.9 32.3994C63.9 32.3994 63.9 32.5078 63.9 32.6163C63.9 32.7247 64.0083 32.8332 64.0083 32.9416V33.4838H63.4667C63.25 33.4838 63.0333 33.4838 62.6 33.1585C62.4917 33.1585 62.275 33.0501 61.95 33.0501C61.7333 33.0501 61.7333 33.1585 61.625 33.1585C61.5167 33.3754 61.5167 33.8092 61.625 34.1345L62.0583 35.0021L61.625 35.219C61.5167 35.219 61.3 35.4359 60.975 35.4359C60.5417 35.4359 60.1083 35.219 59.675 35.0021L59.025 35.1105L58.9167 35.0021C58.8083 35.0021 58.7 34.8936 58.5917 34.8936C58.05 34.6767 57.6167 34.4599 57.1833 34.6767C56.8583 34.7852 56.3167 35.219 56.2083 35.8697C56.1 36.0866 56.1 36.4119 56.1 36.7372C56.1 37.2795 56.1 37.8217 55.5583 38.4724L55.45 38.5808H55.2333L54.9083 38.6893L54.475 38.3639C54.2583 38.2555 54.0417 38.0386 53.9333 37.8217C53.825 37.6048 53.825 37.4963 53.7167 37.3879C53.7167 37.2795 53.6083 37.171 53.6083 37.0626C53.5 36.9541 53.5 36.8457 53.3917 36.6288C53.2833 36.3034 53.175 36.0866 52.85 35.7612C52.525 35.219 52.2 35.1105 51.875 35.1105C51.4417 35.219 51.1167 35.7612 50.7917 36.4119L50.3583 36.7372C49.6 38.2555 48.0833 39.123 46.4583 39.0146C46.35 39.0146 46.2417 39.0146 46.1333 38.9062C46.025 38.9062 45.9167 38.9062 45.8083 38.9062H45.5917C45.375 38.7977 44.9417 38.7977 44.725 38.7977C44.2917 38.7977 43.425 39.0146 43.3167 39.5568C43.1 40.0991 43.2083 40.6413 43.6417 40.9666C43.8583 41.1835 44.075 41.4004 44.2917 41.5089C44.725 41.7258 44.9417 41.9426 45.05 42.268C45.2667 42.7018 45.05 43.0271 44.9417 43.1356L43.9667 44.1116C43.6417 44.3285 43.3167 44.6538 42.9917 45.0876C42.775 45.6298 42.9917 46.1721 43.425 46.8227C43.5333 46.9312 43.5333 47.0396 43.6417 47.1481C43.8583 47.4734 44.075 47.9072 43.9667 48.5579C43.9667 48.6663 43.8583 48.8832 43.8583 48.8832V48.9917C43.75 49.317 43.6417 49.5339 43.6417 49.8592C43.5333 50.5099 43.8583 51.3775 44.2917 51.7028C44.9417 52.245 45.5917 52.245 46.2417 52.245C46.675 52.245 47.2167 52.245 47.65 52.3535L48.3 52.5704V52.8957C48.3 53.1126 48.1917 53.3295 48.0833 53.438V53.5464H47.975C47.8667 53.6549 47.8667 53.7633 47.7583 53.8717C47.5417 54.1971 47.4333 54.414 47.4333 54.7393C47.4333 55.0647 47.5417 55.0647 47.7583 55.1731H47.8667C47.975 55.1731 48.1917 55.1731 48.625 54.9562C48.8417 54.8478 49.0583 54.7393 49.275 54.6309C49.4917 54.5224 49.7083 54.414 49.925 54.3055C50.6833 53.7633 51.3333 53.2211 51.4417 53.0042L51.9833 52.3535C52.6333 51.5944 53.175 51.0521 54.15 50.7268C55.775 50.5099 56.9667 51.1606 58.2667 51.8113L58.9167 52.1366L59.1333 52.3535L59.4583 52.5704C60.5417 53.3295 61.8417 54.0886 62.3833 55.39L63.0333 57.6674C63.3583 59.0772 63.7917 60.487 64.6583 61.8968C64.9833 62.439 65.4167 62.7643 65.85 63.1981C66.0667 63.3066 66.175 63.5235 66.3917 63.6319L66.7167 63.9572C67.3667 64.4995 68.125 65.1502 68.6667 65.6924C69.9667 66.6684 70.9417 67.7529 71.7 68.6204C72.1333 69.2711 72.5667 69.7049 72.8917 70.2471Z" fill="white"></path>
  <path d="M54.3667 91.9364H54.15C53.5 91.9364 52.85 91.7195 52.3083 91.2857C51.4417 90.635 50.9 89.5506 50.9 88.3577C50.9 87.4901 51.0083 86.6225 51.225 85.8634L51.3333 85.5381C51.7667 83.4776 51.55 81.8509 50.7917 80.658C50.0333 79.5735 49.925 78.8144 50.1417 77.9468C50.4667 77.0792 51.225 76.537 52.525 76.3201C52.85 76.2117 53.175 76.2117 53.3917 76.2117C53.825 76.2117 53.9333 76.2117 54.0417 76.1032L54.3667 75.561C54.5833 75.0188 54.9083 74.2596 55.775 73.9343C56.6417 73.609 57.725 73.7174 58.4833 74.2596C60.65 75.8863 60.4333 78.0553 60.2167 79.7904V80.2242C60.2167 80.9833 60.1083 81.5255 60 82.1762V82.3931C59.8917 83.4776 59.8917 84.4536 59.8917 85.6465V86.6225C60 87.1648 60.1083 87.9239 60 88.683C59.8917 89.7675 59.2417 90.635 58.2667 90.8519C57.6167 91.0688 56.9667 90.9604 56.5333 90.8519C56.425 90.8519 56.3167 90.7435 56.3167 90.7435C56.3167 90.8519 56.2083 90.8519 56.1 90.9604C55.8833 91.1773 55.45 91.8279 54.3667 91.9364ZM56.8583 74.6934C56.6417 74.6934 56.3167 74.6934 56.1 74.8019C55.6667 74.9103 55.5583 75.2357 55.3417 75.7779L54.9083 76.7539C54.475 77.1877 54.0417 77.1877 53.3917 77.1877C53.175 77.1877 53.0667 77.1877 52.85 77.2961C51.875 77.513 51.4417 77.8384 51.225 78.2722C51.1167 78.7059 51.1167 79.1397 51.6583 80.1157C52.6333 81.5255 52.85 83.3691 52.4167 85.8634L52.3083 86.2972C52.0917 86.9479 51.9833 87.707 51.9833 88.4661C51.9833 89.3337 52.3083 90.0928 52.9583 90.5266C53.2833 90.8519 53.7167 90.9604 54.15 90.9604H54.3667C54.9083 90.8519 55.0167 90.635 55.2333 90.3097C55.3417 90.2013 55.45 90.0928 55.45 90.0928C55.5583 89.9844 55.6667 89.8759 55.8833 89.7675C56.2083 89.659 56.5333 89.7675 56.6417 89.7675C56.6417 89.7675 56.75 89.7675 56.8583 89.8759C57.075 89.9844 57.5083 89.9844 57.9417 89.8759C58.5917 89.659 58.8083 89.0083 58.9167 88.5746C59.025 88.0323 58.9167 87.3816 58.8083 86.731V85.6465C58.8083 84.4536 58.8083 83.3691 58.9167 82.2847V82.0678C59.025 81.4171 59.1333 80.8749 59.1333 80.2242V79.5735C59.35 77.9468 59.5667 76.3201 57.9417 75.1272C57.5083 74.8019 57.1833 74.6934 56.8583 74.6934Z" fill="white"></path>
  <circle cx="135.5" cy="27.5" r="22.5" fill="#269E96"></circle>
  <path d="M128.554 35V20.09H131.452V35H128.554ZM145.714 22.631H140.947V35H138.07V22.631H133.303V20.09H145.714V22.631Z" fill="white"></path>
</svg>
