<?xml version="1.0" encoding="UTF-8"?>
<svg xmlns="http://www.w3.org/2000/svg" width="158" height="138" viewBox="0 0 158 138" fill="none">
  <ellipse cx="73" cy="69" rx="73" ry="69" fill="#002926"></ellipse>
  <path d="M100.433 75.9364C100.09 75.9364 99.8618 76.0509 99.6333 76.2797L89.3512 86.5763L84.6671 81.8856C84.2102 81.428 83.4104 81.428 82.9535 81.8856L77.3554 87.3771C76.8984 87.8347 76.8984 88.6356 77.3554 89.0932L88.4372 100.305C88.5515 100.419 88.6657 100.534 88.78 100.534H89.0085C89.1227 100.534 89.1227 100.534 89.237 100.534C89.3512 100.534 89.3512 100.534 89.4654 100.534C89.6939 100.534 89.9224 100.419 90.0367 100.191L106.717 83.4873C107.173 83.0297 107.173 82.2288 106.717 81.7712L101.347 76.2797C101.118 76.0509 100.776 75.9364 100.433 75.9364ZM89.3512 97.7881L79.8688 88.2924L83.7532 84.4025L88.5515 89.2076C89.0085 89.6653 89.8082 89.6653 90.2652 89.2076C90.2652 89.2076 90.3794 89.0932 90.3794 88.9788L100.547 78.7966L104.432 82.6864L89.3512 97.7881Z" fill="white"></path>
  <path d="M42.0536 62.6653H59.4189C59.7616 62.6653 60.1044 62.4364 60.1044 61.9788V40.2415C60.1044 39.8983 59.7616 39.5551 59.4189 39.5551H42.0536C41.7109 39.5551 41.3681 39.7839 41.3681 40.2415V61.9788C41.3681 62.322 41.7109 62.6653 42.0536 62.6653ZM42.7391 61.4068C43.0818 57.2881 46.5092 53.9703 50.7363 53.9703C54.9633 53.9703 58.3907 57.1737 58.7334 61.4068H42.7391ZM47.0804 48.9364C47.0804 46.8771 48.7941 45.2754 50.7363 45.2754C52.7927 45.2754 54.3921 46.9915 54.3921 48.9364C54.3921 50.9958 52.6784 52.5975 50.7363 52.5975C48.6798 52.7119 47.0804 50.9958 47.0804 48.9364ZM58.7334 40.928V57.2881C57.591 55.3432 55.763 53.8559 53.4781 53.1695C54.8491 52.2542 55.6488 50.767 55.6488 49.0508C55.6488 46.3051 53.3639 44.0169 50.622 44.0169C47.8801 44.0169 45.5952 46.3051 45.5952 49.0508C45.5952 50.767 46.5092 52.2542 47.7659 53.1695C45.5952 53.8559 43.653 55.3432 42.5106 57.2881V40.928H58.7334Z" fill="white"></path>
  <path d="M113 32.9195C113 30.1737 110.715 28 108.087 28H36.9126C34.1707 28 32 30.1737 32 32.9195V80.5127C32 83.2585 34.1707 85.4322 36.9126 85.4322H71.5289C71.4147 86.3475 71.3004 87.2627 71.3004 88.178C71.3004 99.733 80.6686 109 92.0931 109C103.518 109 112.886 99.6186 112.886 88.178C112.886 86.3475 112.657 84.6314 112.2 82.9153C112.657 82.2288 112.886 81.3136 112.886 80.3983V32.9195H113ZM92.0931 106.712C81.9253 106.712 73.5853 98.3602 73.5853 88.178C73.5853 77.9958 81.9253 69.7585 92.0931 69.7585C102.261 69.7585 110.601 78.1102 110.601 88.2924C110.601 98.4746 102.375 106.712 92.0931 106.712ZM110.601 78.6822C107.173 72.0466 100.205 67.4703 92.0931 67.4703C82.3822 67.4703 74.1566 74.2203 71.8717 83.2585H36.9126C35.5416 83.2585 34.3992 82.1144 34.3992 80.7415V32.9195C34.3992 31.5466 35.5416 30.4025 36.9126 30.4025H108.087C109.458 30.4025 110.601 31.5466 110.601 32.9195V78.6822Z" fill="white"></path>
  <path d="M89.6939 42.9873H101.69C102.375 42.9873 102.832 42.4153 102.832 41.8432C102.832 41.2712 102.261 40.6992 101.69 40.6992H89.6939C89.0085 40.6992 88.5515 41.2712 88.5515 41.8432C88.5515 42.4153 89.0085 42.9873 89.6939 42.9873Z" fill="white"></path>
  <path d="M78.0409 42.9873H83.9817C84.6671 42.9873 85.1241 42.4153 85.1241 41.8432C85.1241 41.2712 84.5529 40.6992 83.9817 40.6992H78.0409C77.3554 40.6992 76.8985 41.2712 76.8985 41.8432C76.8985 42.4153 77.4697 42.9873 78.0409 42.9873Z" fill="white"></path>
  <path d="M101.69 48.4788H78.0409C77.3554 48.4788 76.8985 49.0508 76.8985 49.6229C76.8985 50.1949 77.4697 50.767 78.0409 50.767H101.69C102.375 50.767 102.832 50.1949 102.832 49.6229C102.832 49.0508 102.375 48.4788 101.69 48.4788Z" fill="white"></path>
  <path d="M66.2736 71.0169H42.6248C41.9394 71.0169 41.4824 71.589 41.4824 72.161C41.4824 72.8475 42.0536 73.3051 42.6248 73.3051H66.2736C66.9591 73.3051 67.4161 72.733 67.4161 72.161C67.4161 71.4746 66.8449 71.0169 66.2736 71.0169Z" fill="white"></path>
  <path d="M90.0367 56.3729H78.0409C77.3554 56.3729 76.8985 56.9449 76.8985 57.517C76.8985 58.089 77.4697 58.661 78.0409 58.661H90.0367C90.7221 58.661 91.1791 58.089 91.1791 57.517C91.1791 56.9449 90.7221 56.3729 90.0367 56.3729Z" fill="white"></path>
  <path d="M101.69 56.3729H95.6347C94.9492 56.3729 94.4922 56.9449 94.4922 57.517C94.4922 58.089 95.0635 58.661 95.6347 58.661H101.575C102.261 58.661 102.718 58.089 102.718 57.517C102.832 56.9449 102.375 56.3729 101.69 56.3729Z" fill="white"></path>
  <circle cx="135.5" cy="27.5" r="22.5" fill="#269E96"></circle>
  <path d="M120.672 26.196C120.672 27.134 120.896 27.981 121.344 28.737C121.806 29.479 122.429 30.074 123.213 30.522C124.011 30.956 124.893 31.173 125.859 31.173C126.335 31.173 126.769 31.11 127.161 30.984C127.567 30.844 127.924 30.648 128.232 30.396C128.554 30.144 128.806 29.857 128.988 29.535C128.974 30.431 128.834 31.201 128.568 31.845C128.316 32.475 127.959 32.958 127.497 33.294C127.049 33.63 126.51 33.798 125.88 33.798C125.264 33.798 124.683 33.644 124.137 33.336C123.605 33.042 123.171 32.636 122.835 32.118L121.218 33.882C121.764 34.638 122.436 35.219 123.234 35.625C124.032 36.031 124.9 36.234 125.838 36.234C127.014 36.234 128.036 35.912 128.904 35.268C129.772 34.624 130.437 33.679 130.899 32.433C131.375 31.187 131.613 29.661 131.613 27.855C131.613 26.413 131.389 25.188 130.941 24.18C130.493 23.158 129.856 22.374 129.03 21.828C128.218 21.282 127.245 21.009 126.111 21.009C125.089 21.009 124.165 21.24 123.339 21.702C122.513 22.164 121.862 22.787 121.386 23.571C120.91 24.355 120.672 25.23 120.672 26.196ZM126.111 23.382C126.601 23.382 127.056 23.515 127.476 23.781C127.896 24.033 128.232 24.376 128.484 24.81C128.736 25.23 128.862 25.692 128.862 26.196C128.862 26.7 128.736 27.162 128.484 27.582C128.232 27.988 127.896 28.317 127.476 28.569C127.07 28.807 126.615 28.926 126.111 28.926C125.607 28.926 125.145 28.807 124.725 28.569C124.305 28.317 123.969 27.988 123.717 27.582C123.479 27.162 123.36 26.7 123.36 26.196C123.36 25.678 123.486 25.209 123.738 24.789C123.99 24.369 124.326 24.033 124.746 23.781C125.166 23.515 125.621 23.382 126.111 23.382ZM144.231 26.847C144.231 28.079 143.993 29.178 143.517 30.144C143.055 31.096 142.411 31.845 141.585 32.391C140.773 32.937 139.849 33.21 138.813 33.21C137.777 33.21 136.846 32.937 136.02 32.391C135.208 31.845 134.564 31.096 134.088 30.144C133.626 29.178 133.395 28.079 133.395 26.847C133.395 25.615 133.626 24.523 134.088 23.571C134.564 22.605 135.208 21.849 136.02 21.303C136.846 20.743 137.777 20.463 138.813 20.463C139.849 20.463 140.773 20.743 141.585 21.303C142.411 21.849 143.055 22.605 143.517 23.571C143.993 24.523 144.231 25.615 144.231 26.847ZM141.396 26.847C141.396 26.091 141.284 25.433 141.06 24.873C140.85 24.299 140.549 23.851 140.157 23.529C139.765 23.207 139.317 23.046 138.813 23.046C138.295 23.046 137.84 23.207 137.448 23.529C137.056 23.851 136.748 24.299 136.524 24.873C136.314 25.433 136.209 26.091 136.209 26.847C136.209 27.603 136.314 28.261 136.524 28.821C136.748 29.381 137.056 29.822 137.448 30.144C137.84 30.466 138.295 30.627 138.813 30.627C139.317 30.627 139.758 30.466 140.136 30.144C140.528 29.822 140.836 29.381 141.06 28.821C141.284 28.247 141.396 27.589 141.396 26.847ZM153.12 24.411V26.679H150.957V29.052H148.416V26.679H146.253V24.411H148.416V22.038H150.957V24.411H153.12Z" fill="white"></path>
</svg>
