<?xml version="1.0" encoding="UTF-8"?>
<svg xmlns="http://www.w3.org/2000/svg" width="158" height="136" viewBox="0 0 158 136" fill="none">
  <ellipse cx="73" cy="68" rx="73" ry="68" fill="#002926"></ellipse>
  <path d="M112.164 97.6543C111.216 96.266 109.675 95.4561 107.897 95.4561H100.076L100.194 94.6463C100.431 90.9442 101.379 87.0106 103.394 82.6144C103.868 81.4574 103.987 80.3005 103.868 79.0279C103.631 76.8298 102.091 75.0944 100.194 74.1689V30.3218C100.194 27.4295 97.8242 25 94.8615 25H38.3329C35.3702 25 33 27.3138 33 30.3218V106.794C33 109.686 35.3702 112 38.3329 112H94.8615C97.4687 112 99.6019 110.265 100.194 107.719V107.604H109.083C109.557 107.604 110.031 107.372 110.386 107.141C110.742 106.794 110.979 106.331 110.979 105.868V103.902H111.334C111.69 103.902 111.927 103.67 112.045 103.439L112.638 102.166C113.23 100.778 113.112 99.0426 112.164 97.6543ZM94.8615 110.265H38.3329C36.4368 110.265 34.7776 108.761 34.7776 106.794V30.3218C34.7776 28.4707 36.4368 26.8511 38.3329 26.8511H94.8615C96.7577 26.8511 98.4168 28.3551 98.4168 30.3218V73.5904C98.2983 73.5904 98.1798 73.5904 98.1798 73.5904C96.2836 73.359 94.3875 73.9375 92.9654 75.2101C91.5433 76.4827 90.7137 78.2181 90.7137 80.0692C90.7137 81.1104 90.9507 82.0359 91.4248 82.9614C93.2024 86.3165 94.1505 90.4814 94.506 95.2247V95.4561H96.0466V95.2247C95.8096 90.25 94.743 85.8537 92.8469 82.2673C92.4913 81.5731 92.2543 80.7633 92.2543 80.0692C92.2543 78.6809 92.8469 77.2926 93.9135 76.367C94.98 75.4415 96.4021 74.9787 97.8242 75.2101C98.2983 75.3258 98.7723 75.4415 99.2463 75.5572C100.787 76.2513 101.972 77.6396 102.209 79.375C102.209 79.6064 102.328 79.8378 102.328 80.0692C102.328 80.7633 102.091 81.4574 101.854 82.0359C99.8389 86.5479 98.7723 90.5971 98.5353 94.5306L98.4168 95.4561H86.5659C84.9068 95.4561 83.2477 96.266 82.2996 97.6543C81.3515 99.0426 81.233 100.778 81.9441 102.282L82.5366 103.555C82.6551 103.786 82.8921 104.017 83.2477 104.017H83.7217V105.984C83.7217 107.025 84.5513 107.719 85.4993 107.719H98.1798C97.8242 109.223 96.5206 110.265 94.8615 110.265ZM109.32 105.868C109.32 105.984 109.32 105.984 109.201 106.1H85.4993C85.3808 106.1 85.2623 105.984 85.2623 105.868V104.017H109.201V105.868H109.32ZM111.097 101.703L110.742 102.398H83.8402L83.4847 101.703C83.0107 100.662 83.1292 99.5053 83.7217 98.4641C84.4328 97.5386 85.4993 96.9601 86.5659 96.9601H107.779C108.964 96.9601 110.031 97.5386 110.623 98.4641C111.216 99.3896 111.571 100.662 111.097 101.703Z" fill="white"></path>
  <path d="M47.3395 42.4694L49.2357 37.1476H47.6951L46.51 40.9654L45.3249 37.1476H43.6658L45.5619 42.4694H47.3395Z" fill="white"></path>
  <path d="M51.6059 37.1476H49.9467V42.4694H51.6059V37.1476Z" fill="white"></path>
  <path d="M51.6059 35.0652H49.9467V36.5691H51.6059V35.0652Z" fill="white"></path>
  <path d="M55.2796 41.3125C55.1611 41.3125 55.0426 41.4282 54.8056 41.4282C54.5686 41.4282 54.2131 41.4282 53.8575 41.1968C53.6205 41.0811 53.265 40.9654 52.9095 40.6184L52.3169 41.6596C52.6724 41.891 53.028 42.1223 53.502 42.3537C53.976 42.4694 54.3316 42.5851 54.9241 42.5851C55.6352 42.5851 56.1092 42.4694 56.5832 42.1223C56.9387 41.7753 57.1758 41.4282 57.1758 40.8497C57.1758 40.5027 57.0573 40.2713 56.9387 40.1556C56.8202 39.9242 56.5832 39.8085 56.2277 39.6928C55.9907 39.5771 55.5166 39.4614 55.1611 39.3457C54.9241 39.2301 54.8056 39.2301 54.6871 39.1144C54.5686 39.1144 54.4501 38.9987 54.4501 38.9987C54.3316 38.9987 54.3316 38.883 54.3316 38.7673C54.3316 38.6516 54.3316 38.5359 54.4501 38.5359C54.5686 38.4202 54.5686 38.4202 54.6871 38.4202C54.8056 38.4202 54.9241 38.4202 55.0426 38.4202C55.2796 38.4202 55.5166 38.4202 55.7537 38.5359C55.9907 38.6516 56.3462 38.7673 56.5832 38.9987L57.2943 37.9574C56.9388 37.7261 56.5832 37.4947 56.2277 37.379C55.8722 37.2633 55.5166 37.1476 55.1611 37.1476C54.6871 37.1476 54.3316 37.2633 53.976 37.379C53.6205 37.4947 53.3835 37.7261 53.265 38.0731C52.6724 38.1888 52.6724 38.5359 52.6724 38.883C52.6724 39.2301 52.7909 39.4614 52.9095 39.5771C53.028 39.8085 53.265 39.9242 53.502 40.0399C53.739 40.1556 54.0945 40.2713 54.5686 40.387C54.8056 40.5027 54.9241 40.5027 55.1611 40.5027C55.2796 40.6184 55.3981 40.6184 55.3981 40.734C55.5166 40.734 55.5166 40.8497 55.5166 40.9654C55.5166 41.0811 55.3981 41.1968 55.2796 41.3125Z" fill="white"></path>
  <path d="M60.6125 39.2301C60.3755 39.2301 60.1385 39.2301 59.9015 39.2301C59.4274 39.2301 59.0719 39.3457 58.7164 39.4614C58.3609 39.5771 58.0053 39.8085 57.8868 40.0399C57.6498 40.2713 57.6498 40.6184 57.6498 40.9654C57.6498 41.3125 57.7683 41.5439 57.8868 41.7753C58.0053 42.0066 58.2423 42.238 58.5979 42.3537C58.8349 42.4694 59.1904 42.5851 59.5459 42.5851C59.9015 42.5851 60.257 42.4694 60.6125 42.3537C60.968 42.1223 61.3236 42.0067 61.4421 41.6596V41.891C61.4421 42.1223 61.5606 42.238 61.6791 42.3537C61.9161 42.4694 62.0346 42.5851 62.3901 42.5851C62.5087 42.5851 62.6272 42.5851 62.6272 42.5851C62.7457 42.5851 62.8642 42.5851 62.9827 42.5851V41.1968C62.8642 41.1968 62.7457 41.0811 62.7457 41.0811C62.6272 40.9654 62.6272 40.8497 62.6272 40.734V39.3457C62.6272 38.6516 62.3901 38.0731 61.9161 37.7261C61.4421 37.379 60.8495 37.1476 60.02 37.1476C59.5459 37.1476 59.1904 37.2633 58.8349 37.379C58.4794 37.4947 58.0053 37.6104 57.6498 37.8418L58.1238 38.883C58.3609 38.6516 58.7164 38.5359 58.9534 38.4202C59.1904 38.3045 59.5459 38.3045 59.783 38.3045C60.1385 38.3045 60.494 38.4202 60.6125 38.5359C60.8495 38.7673 60.8495 38.883 60.8495 39.2301V39.4614C60.968 39.3457 60.8495 39.2301 60.6125 39.2301ZM61.0866 40.734C61.0866 40.8497 61.0866 40.8497 60.968 40.9654C60.968 41.0811 60.8495 41.0811 60.731 41.1968C60.6125 41.3125 60.494 41.4282 60.3755 41.4282C60.1385 41.5439 60.02 41.5439 59.9015 41.5439C59.6644 41.5439 59.6645 41.5439 59.4274 41.4282C59.3089 41.4282 59.1904 41.3125 59.1904 41.1968C59.1904 41.0811 59.0719 40.9654 59.0719 40.8497C59.0719 40.6184 59.1904 40.5027 59.3089 40.387C59.5459 40.2713 59.783 40.1556 60.1385 40.1556C60.257 40.1556 60.3755 40.1556 60.6125 40.2713C60.8495 40.2713 60.968 40.387 61.0866 40.387V40.734Z" fill="white"></path>
  <path d="M75.3076 84.4654C75.1891 84.0027 74.8336 83.5399 74.3595 83.3085C73.8855 83.0771 73.2929 82.9614 72.8189 83.1928L52.7909 88.9774C51.7244 89.3245 51.1318 90.3657 51.4874 91.4069L54.2131 100.431C54.4501 101.241 55.2796 101.819 56.1092 101.819C56.3462 101.819 56.4647 101.819 56.7017 101.703L76.7297 95.9189C77.2037 95.8032 77.6778 95.4561 77.9148 94.9934C78.1518 94.5306 78.2703 93.9521 78.0333 93.4894L75.3076 84.4654ZM76.2557 94.1835L56.1092 99.8524L53.502 90.5971L73.6485 84.9282L76.2557 94.1835Z" fill="white"></path>
  <path d="M60.731 93.0266C60.6125 92.7952 60.3755 92.6795 60.1385 92.4481C59.9015 92.3324 59.6645 92.2168 59.4274 92.2168C59.1904 92.2168 58.9534 92.2168 58.7164 92.2168C58.4794 92.3325 58.1238 92.4481 58.0053 92.6795C57.8868 92.9109 57.7683 93.0266 57.6498 93.3737L57.4128 92.6795L56.3462 93.0266L58.0053 98.3484L59.1904 98.0013L58.4794 95.8032C58.7164 96.0346 58.8349 96.1503 59.1904 96.1503C59.4274 96.1503 59.6645 96.1503 60.02 96.1503C60.257 96.0346 60.494 95.9189 60.6125 95.8032C60.8495 95.6875 60.968 95.4561 61.0866 95.2247C61.2051 94.9934 61.2051 94.762 61.2051 94.5306C61.2051 94.2992 61.2051 93.9521 61.0866 93.7207C60.968 93.4894 60.8495 93.1423 60.731 93.0266ZM59.783 94.8777C59.783 94.9934 59.6644 95.109 59.5459 95.2247C59.4274 95.3404 59.3089 95.3404 59.1904 95.4561C58.9534 95.4561 58.8349 95.4561 58.5979 95.4561C58.3609 95.3404 58.2423 95.2247 58.1238 95.109L58.0053 94.0678C58.0053 93.8364 58.1238 93.7207 58.2423 93.6051C58.3609 93.4894 58.4794 93.3737 58.7164 93.3737C58.8349 93.3737 58.9534 93.3737 59.0719 93.3737C59.1904 93.3737 59.3089 93.4894 59.4274 93.4894C59.5459 93.6051 59.6645 93.6051 59.6645 93.7207C59.783 93.8364 59.783 93.9521 59.783 94.0678C59.783 94.1835 59.783 94.2992 59.783 94.5306C59.9015 94.6463 59.9015 94.762 59.783 94.8777Z" fill="white"></path>
  <path d="M65.4714 93.3737C65.4714 93.3737 65.3529 93.258 65.3529 93.1423L65.1158 92.2168C64.9973 91.6383 64.6418 91.2912 64.2863 91.1755C63.9308 90.9442 63.3382 90.9442 62.7457 91.1755C62.3901 91.2912 62.1531 91.4069 61.9161 91.5226C61.6791 91.6383 61.4421 91.8697 61.2051 92.1011L61.7976 92.6795C61.9161 92.4481 62.1531 92.3325 62.2716 92.2168C62.3901 92.1011 62.6272 91.9854 62.8642 91.9854C63.3382 91.8697 63.6937 91.9854 63.8123 92.4481V92.5638C63.6937 92.5638 63.5752 92.5638 63.3382 92.5638C63.2197 92.5638 62.9827 92.5638 62.8642 92.6795C62.6272 92.7952 62.3901 92.7952 62.2716 92.9109C62.0346 93.0266 61.9161 93.1423 61.7976 93.3737C61.6791 93.4894 61.5606 93.7208 61.5606 93.8364C61.5606 94.0678 61.5606 94.1835 61.5606 94.4149C61.5606 94.5306 61.6791 94.762 61.7976 94.8777C61.9161 94.9934 62.0346 95.109 62.1531 95.2247C62.2716 95.3404 62.5087 95.3404 62.6272 95.3404C62.8642 95.3404 62.9827 95.3404 63.2197 95.2247C63.4567 95.109 63.6937 94.9934 63.9308 94.8777C64.1678 94.6463 64.2863 94.4149 64.4048 94.1835L64.5233 94.4149C64.6418 94.5306 64.6418 94.6463 64.8788 94.6463C64.9973 94.6463 65.2344 94.6463 65.4714 94.6463C65.5899 94.6463 65.5899 94.6463 65.7084 94.5306C65.8269 94.5306 65.8269 94.4149 65.9454 94.4149L65.7084 93.3737C65.5899 93.3737 65.4714 93.3737 65.4714 93.3737ZM64.0493 93.8364C64.0493 93.9521 63.9308 94.0678 63.8123 94.0678C63.6937 94.1835 63.5752 94.1835 63.4567 94.2992C63.3382 94.2992 63.1012 94.2992 62.9827 94.2992C62.8642 94.2992 62.7457 94.1835 62.7457 93.9521C62.7457 93.8364 62.7457 93.6051 62.8642 93.4894C62.9827 93.3737 63.1012 93.258 63.3382 93.1423C63.4567 93.1423 63.5752 93.1423 63.6937 93.1423C63.8123 93.1423 63.9308 93.1423 64.0493 93.1423L64.1678 93.4894C64.1678 93.6051 64.1678 93.7208 64.0493 93.8364Z" fill="white"></path>
  <path d="M69.1451 91.754C69.0266 91.6383 68.9081 91.6383 68.7896 91.5226C68.6711 91.5226 68.4341 91.4069 68.1971 91.4069C67.9601 91.4069 67.723 91.4069 67.486 91.4069C67.249 91.4069 67.012 91.4069 66.8935 91.4069C66.775 91.4069 66.6565 91.2912 66.6565 91.1755C66.6565 91.0598 66.6565 90.9442 66.6565 90.9442C66.775 90.8285 66.775 90.8285 67.012 90.8285C67.1305 90.8285 67.3675 90.7128 67.486 90.8285C67.723 90.8285 67.9601 90.9442 68.1971 90.9442L68.4341 90.1343C68.1971 90.0186 67.8415 89.9029 67.6045 89.9029C67.3675 89.9029 67.012 89.9029 66.775 90.0186C66.538 90.1343 66.3009 90.1343 66.1824 90.25C65.9454 90.3657 65.8269 90.4814 65.8269 90.5971C65.7084 90.7128 65.7084 90.9442 65.5899 91.0598C65.5899 91.2912 65.5899 91.4069 65.5899 91.6383C65.5899 91.754 65.7084 91.8697 65.8269 91.9854C65.9454 92.1011 66.0639 92.1011 66.1824 92.2168C66.3009 92.2168 66.538 92.3325 66.6565 92.3325C66.8935 92.3325 67.1305 92.3325 67.3675 92.3325C67.6045 92.3325 67.8415 92.3325 67.9601 92.3325C68.0786 92.3325 68.1971 92.4481 68.1971 92.5638C68.1971 92.6795 68.1971 92.7952 68.1971 92.7952C68.1971 92.9109 68.0786 92.9109 67.8415 93.0266C67.6045 93.0266 67.3675 93.1423 67.1305 93.0266C66.8935 93.0266 66.6565 92.9109 66.3009 92.7952L66.0639 93.6051C66.3009 93.7207 66.6565 93.8364 67.012 93.8364C67.3675 93.8364 67.723 93.8364 68.0786 93.7207C68.5526 93.6051 68.9081 93.3737 69.1451 93.0266C69.3822 92.6795 69.3822 92.4481 69.2637 91.9854C69.2637 91.9854 69.2637 91.8697 69.1451 91.754Z" fill="white"></path>
  <path d="M72.8189 90.7128C72.7004 90.5971 72.5819 90.5971 72.4634 90.4814C72.3449 90.3657 72.1079 90.3657 71.8708 90.3657C71.6338 90.3657 71.3968 90.3657 71.1598 90.3657C70.9228 90.3657 70.6858 90.3657 70.5672 90.3657C70.4487 90.3657 70.3302 90.25 70.3302 90.1343C70.3302 90.0186 70.3302 89.9029 70.4487 89.9029C70.5672 89.7872 70.5672 89.7872 70.8043 89.6715C70.9228 89.6715 71.1598 89.5559 71.3968 89.6715C71.6338 89.6715 71.8708 89.6716 72.1079 89.7872L72.3449 88.9774C72.1079 88.8617 71.7523 88.746 71.5153 88.746C71.2783 88.746 70.9228 88.746 70.6858 88.8617C70.4487 88.9774 70.2117 88.9774 70.0932 89.0931C69.8562 89.2088 69.7377 89.3245 69.6192 89.4402C69.5007 89.5559 69.5007 89.7872 69.3822 89.9029C69.3822 90.1343 69.3822 90.25 69.3822 90.4814C69.3822 90.5971 69.5007 90.7128 69.6192 90.8285C69.7377 90.9441 69.8562 90.9442 69.9747 91.0598C70.0932 91.0598 70.3302 91.1755 70.4487 91.1755C70.6858 91.1755 70.9228 91.1755 71.1598 91.1755C71.3968 91.1755 71.6338 91.1755 71.7523 91.1755C71.8708 91.1755 71.9894 91.2912 71.9894 91.4069C71.9894 91.5226 71.9894 91.6383 71.9894 91.6383C71.9894 91.754 71.8708 91.754 71.6338 91.8697C71.3968 91.8697 71.1598 91.9854 70.9228 91.8697C70.6858 91.8697 70.4487 91.754 70.0932 91.6383L69.8562 92.4481C70.0932 92.5638 70.4487 92.6795 70.8043 92.6795C71.1598 92.6795 71.5153 92.6795 71.8708 92.5638C72.3449 92.4481 72.7004 92.2168 72.9374 91.8697C73.1744 91.5226 73.1744 91.2912 73.0559 90.8285C73.0559 90.9441 72.9374 90.8285 72.8189 90.7128Z" fill="white"></path>
  <path d="M44.2583 52.1875H88.9361C89.4101 52.1875 89.8842 51.8404 89.8842 51.262C89.8842 50.7992 89.5286 50.3364 88.9361 50.3364H44.2583C43.7843 50.3364 43.3103 50.6835 43.3103 51.262C43.4288 51.8404 43.7843 52.1875 44.2583 52.1875Z" fill="white"></path>
  <path d="M44.2583 67.9215H88.9361C89.4101 67.9215 89.8842 67.5745 89.8842 66.996C89.8842 66.4176 89.5286 66.0705 88.9361 66.0705H44.2583C43.7843 66.0705 43.3103 66.5332 43.3103 66.996C43.3103 67.4588 43.7843 67.9215 44.2583 67.9215Z" fill="white"></path>
  <path d="M89.8842 74.516C89.8842 74.0532 89.5286 73.5904 88.9361 73.5904H44.2583C43.7843 73.5904 43.3103 73.9375 43.3103 74.516C43.3103 74.9787 43.6658 75.4415 44.2583 75.4415H88.9361C89.4101 75.4415 89.8842 75.0944 89.8842 74.516Z" fill="white"></path>
  <path d="M44.2583 60.2859H66.538C67.012 60.2859 67.486 59.8231 67.486 59.3604C67.486 58.8976 67.012 58.4348 66.538 58.4348H44.2583C43.7843 58.4348 43.3103 58.7819 43.3103 59.3604C43.3103 59.9388 43.7843 60.2859 44.2583 60.2859Z" fill="white"></path>
  <path d="M88.9361 58.4348H73.6485C73.1744 58.4348 72.7004 58.7819 72.7004 59.3604C72.7004 59.9388 73.1744 60.2859 73.6485 60.2859H88.9361C89.4101 60.2859 89.8842 59.8231 89.8842 59.3604C89.8842 58.8976 89.4101 58.4348 88.9361 58.4348Z" fill="white"></path>
  <circle cx="135.5" cy="26.5" r="22.5" fill="#269E96"></circle>
  <path d="M123.672 25.196C123.672 26.134 123.896 26.981 124.344 27.737C124.806 28.479 125.429 29.074 126.213 29.522C127.011 29.956 127.893 30.173 128.859 30.173C129.335 30.173 129.769 30.11 130.161 29.984C130.567 29.844 130.924 29.648 131.232 29.396C131.554 29.144 131.806 28.857 131.988 28.535C131.974 29.431 131.834 30.201 131.568 30.845C131.316 31.475 130.959 31.958 130.497 32.294C130.049 32.63 129.51 32.798 128.88 32.798C128.264 32.798 127.683 32.644 127.137 32.336C126.605 32.042 126.171 31.636 125.835 31.118L124.218 32.882C124.764 33.638 125.436 34.219 126.234 34.625C127.032 35.031 127.9 35.234 128.838 35.234C130.014 35.234 131.036 34.912 131.904 34.268C132.772 33.624 133.437 32.679 133.899 31.433C134.375 30.187 134.613 28.661 134.613 26.855C134.613 25.413 134.389 24.188 133.941 23.18C133.493 22.158 132.856 21.374 132.03 20.828C131.218 20.282 130.245 20.009 129.111 20.009C128.089 20.009 127.165 20.24 126.339 20.702C125.513 21.164 124.862 21.787 124.386 22.571C123.91 23.355 123.672 24.23 123.672 25.196ZM129.111 22.382C129.601 22.382 130.056 22.515 130.476 22.781C130.896 23.033 131.232 23.376 131.484 23.81C131.736 24.23 131.862 24.692 131.862 25.196C131.862 25.7 131.736 26.162 131.484 26.582C131.232 26.988 130.896 27.317 130.476 27.569C130.07 27.807 129.615 27.926 129.111 27.926C128.607 27.926 128.145 27.807 127.725 27.569C127.305 27.317 126.969 26.988 126.717 26.582C126.479 26.162 126.36 25.7 126.36 25.196C126.36 24.678 126.486 24.209 126.738 23.789C126.99 23.369 127.326 23.033 127.746 22.781C128.166 22.515 128.621 22.382 129.111 22.382ZM147.231 25.847C147.231 27.079 146.993 28.178 146.517 29.144C146.055 30.096 145.411 30.845 144.585 31.391C143.773 31.937 142.849 32.21 141.813 32.21C140.777 32.21 139.846 31.937 139.02 31.391C138.208 30.845 137.564 30.096 137.088 29.144C136.626 28.178 136.395 27.079 136.395 25.847C136.395 24.615 136.626 23.523 137.088 22.571C137.564 21.605 138.208 20.849 139.02 20.303C139.846 19.743 140.777 19.463 141.813 19.463C142.849 19.463 143.773 19.743 144.585 20.303C145.411 20.849 146.055 21.605 146.517 22.571C146.993 23.523 147.231 24.615 147.231 25.847ZM144.396 25.847C144.396 25.091 144.284 24.433 144.06 23.873C143.85 23.299 143.549 22.851 143.157 22.529C142.765 22.207 142.317 22.046 141.813 22.046C141.295 22.046 140.84 22.207 140.448 22.529C140.056 22.851 139.748 23.299 139.524 23.873C139.314 24.433 139.209 25.091 139.209 25.847C139.209 26.603 139.314 27.261 139.524 27.821C139.748 28.381 140.056 28.822 140.448 29.144C140.84 29.466 141.295 29.627 141.813 29.627C142.317 29.627 142.758 29.466 143.136 29.144C143.528 28.822 143.836 28.381 144.06 27.821C144.284 27.247 144.396 26.589 144.396 25.847Z" fill="white"></path>
</svg>
