<?xml version="1.0" encoding="UTF-8"?>
<svg xmlns="http://www.w3.org/2000/svg" width="158" height="136" viewBox="0 0 158 136" fill="none">
  <ellipse cx="73" cy="68" rx="73" ry="68" fill="#002926"></ellipse>
  <path d="M102.997 28.0366H94.9517V26.0845C94.9517 25.4338 94.4081 25 93.8644 25H67.4443C66.7919 25 66.357 25.5422 66.357 26.0845V28.0366H57.8765C52.3315 28.0366 47.8738 32.483 47.8738 38.0139V59.1614L32.6523 65.6683C32.2175 65.8852 32 66.2106 32 66.7528V80.4174C32 87.2497 34.9356 93.6482 40.1544 97.8777C42.7638 99.9382 45.3732 101.24 47.8738 101.456C48.0913 106.77 52.4403 111 57.8765 111H102.997C108.542 111 113 106.554 113 101.023V38.0139C113 32.483 108.542 28.0366 102.997 28.0366ZM68.6403 27.2774H92.7772V30.9647H68.6403V27.2774ZM41.5678 96.034C36.8926 92.2383 34.2832 86.4905 34.2832 80.309V67.4035L48.8524 61.2219L64.1826 67.4035V80.309C64.1826 86.7074 61.247 92.7806 56.2456 96.4678C51.1356 100.264 46.5691 100.155 41.5678 96.034ZM110.717 101.023C110.717 105.252 107.238 108.723 102.997 108.723H57.8765C53.745 108.723 50.3745 105.469 50.157 101.456C52.549 101.24 55.0497 100.155 57.5503 98.3115C63.0953 94.1904 66.4658 87.4666 66.4658 80.309V66.6444C66.4658 66.2106 66.2483 65.7768 65.8134 65.5599L50.2658 59.2699V38.0139C50.2658 33.7844 53.745 30.314 57.9852 30.314H66.357V32.2661C66.357 32.9168 66.9007 33.3506 67.4443 33.3506H93.7557C94.408 33.3506 94.8429 32.8083 94.8429 32.2661V30.314H102.889C107.129 30.314 110.608 33.7844 110.608 38.0139V101.023H110.717Z" fill="white"></path>
  <path d="M59.8336 71.4161C59.2899 71.0908 58.6376 71.1992 58.3114 71.7415L47.7651 87.9004L42.1114 82.6948C41.6765 82.261 40.9154 82.261 40.4805 82.8033C40.0456 83.2371 40.0456 83.9962 40.5893 84.43L47.2215 90.5031C47.4389 90.72 47.7651 90.8285 47.9826 90.8285H48.0913C48.4175 90.8285 48.7436 90.6116 48.9611 90.2863L60.1597 72.9344C60.4859 72.5006 60.3772 71.7415 59.8336 71.4161Z" fill="white"></path>
  <path d="M103.432 40.2913H57.3329C56.6805 40.2913 56.2456 40.8335 56.2456 41.3758C56.2456 41.918 56.7893 42.4603 57.3329 42.4603H103.432C104.085 42.4603 104.628 41.918 104.628 41.3758C104.628 40.8335 104.085 40.2913 103.432 40.2913Z" fill="white"></path>
  <path d="M103.432 48.6419H57.3329C56.6805 48.6419 56.2456 49.1841 56.2456 49.7264C56.2456 50.2686 56.7893 50.8108 57.3329 50.8108H103.432C104.085 50.8108 104.628 50.2686 104.628 49.7264C104.628 49.1841 104.085 48.6419 103.432 48.6419Z" fill="white"></path>
  <path d="M102.889 56.9924H57.3329C56.6805 56.9924 56.2456 57.5347 56.2456 58.0769C56.2456 58.6192 56.7893 59.1614 57.3329 59.1614H102.78C103.432 59.1614 103.976 58.6192 103.976 58.0769C103.976 57.5347 103.541 56.9924 102.889 56.9924Z" fill="white"></path>
  <path d="M102.889 70.1148H72.0107C71.3584 70.1148 70.9235 70.657 70.9235 71.1992C70.9235 71.7415 71.4671 72.2837 72.0107 72.2837H102.78C103.432 72.2837 103.867 71.7415 103.867 71.1992C103.867 70.657 103.541 70.1148 102.889 70.1148Z" fill="white"></path>
  <path d="M102.889 91.1538H72.0107C71.3584 91.1538 70.9235 91.6961 70.9235 92.2383C70.9235 92.7806 71.4671 93.3228 72.0107 93.3228H102.78C103.432 93.3228 103.867 92.7806 103.867 92.2383C103.867 91.6961 103.541 91.1538 102.889 91.1538Z" fill="white"></path>
  <path d="M102.889 80.6343H72.0107C71.3584 80.6343 70.9235 81.1765 70.9235 81.7188C70.9235 82.261 71.4671 82.8033 72.0107 82.8033H102.78C103.432 82.8033 103.867 82.261 103.867 81.7188C103.867 81.1765 103.541 80.6343 102.889 80.6343Z" fill="white"></path>
  <circle cx="135.5" cy="26.5" r="22.5" fill="#269E96"></circle>
  <path d="M128.875 34.105C127.685 34.105 126.67 33.909 125.83 33.517C125.004 33.111 124.332 32.558 123.814 31.858C123.31 31.158 122.939 30.367 122.701 29.485C122.463 28.589 122.344 27.658 122.344 26.692V19.09H125.242V26.692C125.242 27.308 125.298 27.91 125.41 28.498C125.536 29.072 125.739 29.59 126.019 30.052C126.299 30.514 126.67 30.878 127.132 31.144C127.594 31.41 128.168 31.543 128.854 31.543C129.554 31.543 130.135 31.41 130.597 31.144C131.073 30.864 131.444 30.493 131.71 30.031C131.99 29.569 132.193 29.051 132.319 28.477C132.445 27.889 132.508 27.294 132.508 26.692V19.09H135.385V26.692C135.385 27.714 135.259 28.673 135.007 29.569C134.769 30.465 134.384 31.256 133.852 31.942C133.334 32.614 132.662 33.146 131.836 33.538C131.01 33.916 130.023 34.105 128.875 34.105ZM148.657 31.459V34H138.304V19.09H148.468V21.631H141.202V25.222H147.481V27.574H141.202V31.459H148.657Z" fill="white"></path>
</svg>
